<svg width="1200" height="900" xmlns="http://www.w3.org/2000/svg">
  <defs>
    <!-- Gradientes para cada capa -->
    <linearGradient id="dataGradient" x1="0%" y1="0%" x2="100%" y2="100%">
      <stop offset="0%" style="stop-color:#e3f2fd;stop-opacity:0.9" />
      <stop offset="100%" style="stop-color:#bbdefb;stop-opacity:0.9" />
    </linearGradient>
    <linearGradient id="processGradient" x1="0%" y1="0%" x2="100%" y2="100%">
      <stop offset="0%" style="stop-color:#ffebee;stop-opacity:0.9" />
      <stop offset="100%" style="stop-color:#ffcdd2;stop-opacity:0.9" />
    </linearGradient>
    <linearGradient id="storageGradient" x1="0%" y1="0%" x2="100%" y2="100%">
      <stop offset="0%" style="stop-color:#e8f5e8;stop-opacity:0.9" />
      <stop offset="100%" style="stop-color:#c8e6c9;stop-opacity:0.9" />
    </linearGradient>
    <linearGradient id="analyticsGradient" x1="0%" y1="0%" x2="100%" y2="100%">
      <stop offset="0%" style="stop-color:#fff3e0;stop-opacity:0.9" />
      <stop offset="100%" style="stop-color:#ffe0b2;stop-opacity:0.9" />
    </linearGradient>
    <linearGradient id="securityGradient" x1="0%" y1="0%" x2="100%" y2="100%">
      <stop offset="0%" style="stop-color:#f3e5f5;stop-opacity:0.9" />
      <stop offset="100%" style="stop-color:#e1bee7;stop-opacity:0.9" />
    </linearGradient>
    <linearGradient id="awsBlue" x1="0%" y1="0%" x2="100%" y2="100%">
      <stop offset="0%" style="stop-color:#232f3e;stop-opacity:0.9" />
      <stop offset="100%" style="stop-color:#4a5568;stop-opacity:0.9" />
    </linearGradient>
    <linearGradient id="techGradient" x1="0%" y1="0%" x2="100%" y2="100%">
      <stop offset="0%" style="stop-color:#667eea;stop-opacity:0.9" />
      <stop offset="100%" style="stop-color:#764ba2;stop-opacity:0.9" />
    </linearGradient>

    <!-- Filtros mejorados -->
    <filter id="shadow" x="-20%" y="-20%" width="140%" height="140%">
      <feDropShadow dx="2" dy="2" stdDeviation="3" flood-color="#000000" flood-opacity="0.15"/>
    </filter>

    <!-- Flecha simple y elegante -->
    <marker id="arrow" markerWidth="8" markerHeight="6" refX="7" refY="3" orient="auto" markerUnits="strokeWidth">
      <path d="M0,0 L0,6 L8,3 z" fill="#34495e"/>
    </marker>

    <!-- Patrones para iconos -->
    <pattern id="awsPattern" x="0" y="0" width="20" height="20" patternUnits="userSpaceOnUse">
      <rect width="20" height="20" fill="#ff9900"/>
      <text x="10" y="14" text-anchor="middle" font-family="Arial" font-size="12" font-weight="bold" fill="white">AWS</text>
    </pattern>
  </defs>

  <!-- Fondo -->
  <rect width="1200" height="900" fill="#f8f9fa" stroke="#dee2e6" stroke-width="2"/>

  <!-- Logo AWS -->
  <rect x="480" y="15" width="60" height="25" rx="5" ry="5" fill="#232f3e"/>
  <text x="510" y="32" text-anchor="middle" font-family="Arial, sans-serif" font-size="12" font-weight="bold" fill="#ffffff">AWS Cloud</text>

  <!-- Titulo -->
  <text x="600" y="40" text-anchor="middle" font-family="Arial, sans-serif" font-size="24" font-weight="bold" fill="#1f77b4">
    CUSTOMER SATISFACTION ANALYTICS - ARQUITECTURA TO BE
  </text>

  <text x="600" y="65" text-anchor="middle" font-family="Arial, sans-serif" font-size="14" fill="#666">
    Plataforma Empresarial Completa en AWS Cloud
  </text>

  <!-- Capa 1: Fuentes de Datos -->
  <g id="dataLayer">
    <rect x="50" y="90" width="1100" height="100" rx="10" ry="10" fill="url(#dataGradient)" stroke="#1976d2" stroke-width="2" filter="url(#shadow)"/>
    <text x="70" y="115" font-family="Arial, sans-serif" font-size="16" font-weight="bold" fill="#1565c0">CAPA DE INGESTA DE DATOS</text>

    <!-- Fuentes externas -->
    <rect x="80" y="125" width="140" height="55" rx="8" ry="8" fill="url(#dataGradient)" stroke="#2980b9" stroke-width="2" filter="url(#shadow)"/>
    <circle cx="105" cy="140" r="8" fill="#34495e"/>
    <text cx="105" cy="145" text-anchor="middle" font-family="Arial, sans-serif" font-size="10" font-weight="bold" fill="#ffffff">📞</text>
    <text x="125" y="145" font-family="Arial, sans-serif" font-size="12" font-weight="bold" fill="#2c3e50">Call Center</text>
    <text x="125" y="160" font-family="Arial, sans-serif" font-size="10" fill="#34495e">APIs de telefonia</text>

    <rect x="240" y="125" width="140" height="55" rx="8" ry="8" fill="url(#dataGradient)" stroke="#2980b9" stroke-width="2" filter="url(#shadow)"/>
    <circle cx="265" cy="140" r="8" fill="#25d366"/>
    <text cx="265" cy="145" text-anchor="middle" font-family="Arial, sans-serif" font-size="8" font-weight="bold" fill="#ffffff">WA</text>
    <text x="285" y="145" font-family="Arial, sans-serif" font-size="12" font-weight="bold" fill="#2c3e50">WhatsApp Business</text>
    <text x="285" y="160" font-family="Arial, sans-serif" font-size="10" fill="#34495e">Mensajes de chat</text>

    <rect x="400" y="125" width="140" height="55" rx="8" ry="8" fill="url(#dataGradient)" stroke="#2980b9" stroke-width="2" filter="url(#shadow)"/>
    <circle cx="425" cy="140" r="8" fill="#ffc107"/>
    <text cx="425" cy="145" text-anchor="middle" font-family="Arial, sans-serif" font-size="10" font-weight="bold" fill="#ffffff">★</text>
    <text x="445" y="145" font-family="Arial, sans-serif" font-size="12" font-weight="bold" fill="#2c3e50">Review Platforms</text>
    <text x="445" y="160" font-family="Arial, sans-serif" font-size="10" fill="#34495e">Google Reviews</text>

    <rect x="560" y="125" width="140" height="55" rx="8" ry="8" fill="url(#dataGradient)" stroke="#2980b9" stroke-width="2" filter="url(#shadow)"/>
    <circle cx="585" cy="140" r="8" fill="#007aff"/>
    <text cx="585" cy="145" text-anchor="middle" font-family="Arial, sans-serif" font-size="10" font-weight="bold" fill="#ffffff">📱</text>
    <text x="605" y="145" font-family="Arial, sans-serif" font-size="12" font-weight="bold" fill="#2c3e50">Mobile Apps</text>
    <text x="605" y="160" font-family="Arial, sans-serif" font-size="10" fill="#34495e">App feedback</text>

    <!-- Fuentes internas -->
    <rect x="720" y="125" width="140" height="55" rx="8" ry="8" fill="url(#dataGradient)" stroke="#2980b9" stroke-width="2" filter="url(#shadow)"/>
    <circle cx="745" cy="140" r="8" fill="#6c757d"/>
    <text cx="745" cy="145" text-anchor="middle" font-family="Arial, sans-serif" font-size="8" font-weight="bold" fill="#ffffff">DB</text>
    <text x="765" y="145" font-family="Arial, sans-serif" font-size="12" font-weight="bold" fill="#2c3e50">CRM Database</text>
    <text x="765" y="160" font-family="Arial, sans-serif" font-size="10" fill="#34495e">Customer data</text>

    <rect x="880" y="125" width="140" height="55" rx="8" ry="8" fill="url(#dataGradient)" stroke="#2980b9" stroke-width="2" filter="url(#shadow)"/>
    <circle cx="905" cy="140" r="8" fill="#dc3545"/>
    <text cx="905" cy="145" text-anchor="middle" font-family="Arial, sans-serif" font-size="8" font-weight="bold" fill="#ffffff">TK</text>
    <text x="925" y="145" font-family="Arial, sans-serif" font-size="12" font-weight="bold" fill="#2c3e50">Ticketing System</text>
    <text x="925" y="160" font-family="Arial, sans-serif" font-size="10" fill="#34495e">Support cases</text>

    <rect x="1040" y="125" width="100" height="55" rx="8" ry="8" fill="url(#dataGradient)" stroke="#2980b9" stroke-width="2" filter="url(#shadow)"/>
    <circle cx="1060" cy="140" r="8" fill="#28a745"/>
    <text cx="1060" cy="145" text-anchor="middle" font-family="Arial, sans-serif" font-size="8" font-weight="bold" fill="#ffffff">E</text>
    <text x="1075" y="145" font-family="Arial, sans-serif" font-size="11" font-weight="bold" fill="#2c3e50">ERP Systems</text>
    <text x="1075" y="160" font-family="Arial, sans-serif" font-size="9" fill="#34495e">Business data</text>
  </g>

  <!-- Capa 2: Ingesta y Routing -->
  <g id="ingestionLayer">
    <rect x="50" y="210" width="1100" height="80" rx="10" ry="10" fill="url(#dataGradient)" stroke="#1976d2" stroke-width="2" filter="url(#shadow)"/>
    <text x="70" y="235" font-family="Arial, sans-serif" font-size="16" font-weight="bold" fill="#1565c0">CAPA DE INGESTA Y ROUTING</text>

    <rect x="200" y="245" width="180" height="35" rx="8" ry="8" fill="url(#awsBlue)" stroke="#232f3e" stroke-width="2" filter="url(#shadow)"/>
    <rect x="210" y="252" width="20" height="20" rx="3" ry="3" fill="#667eea"/>
    <text x="220" y="265" text-anchor="middle" font-family="Arial, sans-serif" font-size="8" font-weight="bold" fill="#ffffff">API</text>
    <text x="245" y="265" font-family="Arial, sans-serif" font-size="12" font-weight="bold" fill="#ffffff">AWS API Gateway</text>

    <rect x="420" y="245" width="180" height="35" rx="8" ry="8" fill="url(#awsBlue)" stroke="#232f3e" stroke-width="2" filter="url(#shadow)"/>
    <rect x="430" y="252" width="20" height="20" rx="3" ry="3" fill="#667eea"/>
    <text x="440" y="265" text-anchor="middle" font-family="Arial, sans-serif" font-size="7" font-weight="bold" fill="#ffffff">KDS</text>
    <text x="465" y="265" font-family="Arial, sans-serif" font-size="12" font-weight="bold" fill="#ffffff">Kinesis Data Streams</text>

    <rect x="640" y="245" width="180" height="35" rx="8" ry="8" fill="url(#awsBlue)" stroke="#232f3e" stroke-width="2" filter="url(#shadow)"/>
    <rect x="650" y="252" width="20" height="20" rx="3" ry="3" fill="#667eea"/>
    <text x="660" y="265" text-anchor="middle" font-family="Arial, sans-serif" font-size="7" font-weight="bold" fill="#ffffff">KDF</text>
    <text x="685" y="265" font-family="Arial, sans-serif" font-size="12" font-weight="bold" fill="#ffffff">Kinesis Firehose</text>
  </g>

  <!-- Capa 3: Almacenamiento -->
  <g id="storageLayer">
    <rect x="50" y="310" width="1100" height="80" rx="10" ry="10" fill="url(#storageGradient)" stroke="#388e3c" stroke-width="2" filter="url(#shadow)"/>
    <text x="70" y="335" font-family="Arial, sans-serif" font-size="16" font-weight="bold" fill="#2e7d32">CAPA DE ALMACENAMIENTO</text>

    <rect x="120" y="345" width="160" height="35" rx="8" ry="8" fill="url(#storageGradient)" stroke="#138496" stroke-width="2" filter="url(#shadow)"/>
    <circle cx="140" cy="362" r="8" fill="#28a745"/>
    <text x="140" y="367" text-anchor="middle" font-family="Arial, sans-serif" font-size="7" font-weight="bold" fill="#ffffff">S3</text>
    <text x="165" y="365" font-family="Arial, sans-serif" font-size="11" font-weight="bold" fill="#2e7d32">S3 Raw Data Lake</text>

    <rect x="300" y="345" width="160" height="35" rx="8" ry="8" fill="url(#storageGradient)" stroke="#138496" stroke-width="2" filter="url(#shadow)"/>
    <circle cx="320" cy="362" r="8" fill="#28a745"/>
    <text x="320" y="367" text-anchor="middle" font-family="Arial, sans-serif" font-size="7" font-weight="bold" fill="#ffffff">S3</text>
    <text x="345" y="365" font-family="Arial, sans-serif" font-size="11" font-weight="bold" fill="#2e7d32">S3 Processed Data</text>

    <rect x="480" y="345" width="160" height="35" rx="8" ry="8" fill="url(#storageGradient)" stroke="#138496" stroke-width="2" filter="url(#shadow)"/>
    <circle cx="500" cy="362" r="8" fill="#28a745"/>
    <text x="500" y="367" text-anchor="middle" font-family="Arial, sans-serif" font-size="7" font-weight="bold" fill="#ffffff">S3</text>
    <text x="525" y="365" font-family="Arial, sans-serif" font-size="11" font-weight="bold" fill="#2e7d32">S3 Analytics Ready</text>

    <rect x="660" y="345" width="160" height="35" rx="8" ry="8" fill="url(#storageGradient)" stroke="#138496" stroke-width="2" filter="url(#shadow)"/>
    <circle cx="680" cy="362" r="8" fill="#17a2b8"/>
    <text x="680" y="367" text-anchor="middle" font-family="Arial, sans-serif" font-size="6" font-weight="bold" fill="#ffffff">RS</text>
    <text x="705" y="365" font-family="Arial, sans-serif" font-size="11" font-weight="bold" fill="#2e7d32">Redshift DW</text>

    <rect x="840" y="345" width="160" height="35" rx="8" ry="8" fill="url(#storageGradient)" stroke="#138496" stroke-width="2" filter="url(#shadow)"/>
    <circle cx="860" cy="362" r="8" fill="#6f42c1"/>
    <text x="860" y="367" text-anchor="middle" font-family="Arial, sans-serif" font-size="6" font-weight="bold" fill="#ffffff">GL</text>
    <text x="885" y="365" font-family="Arial, sans-serif" font-size="11" font-weight="bold" fill="#2e7d32">Glue Data Catalog</text>
  </g>

  <!-- Capa 4: Procesamiento e IA -->
  <g id="processingLayer">
    <rect x="50" y="410" width="1100" height="100" rx="10" ry="10" fill="url(#processGradient)" stroke="#d32f2f" stroke-width="2" filter="url(#shadow)"/>
    <text x="70" y="435" font-family="Arial, sans-serif" font-size="16" font-weight="bold" fill="#c62828">CAPA DE PROCESAMIENTO E INTELIGENCIA</text>

    <rect x="80" y="450" width="140" height="50" rx="8" ry="8" fill="url(#processGradient)" stroke="#c0392b" stroke-width="2" filter="url(#shadow)"/>
    <circle cx="100" cy="465" r="8" fill="#667eea"/>
    <text x="100" y="470" text-anchor="middle" font-family="Arial, sans-serif" font-size="6" font-weight="bold" fill="#ffffff">KA</text>
    <text x="125" y="470" font-family="Arial, sans-serif" font-size="11" font-weight="bold" fill="#c62828">Kinesis Analytics</text>
    <text x="125" y="485" font-family="Arial, sans-serif" font-size="9" fill="#c62828">Real-time processing</text>

    <rect x="240" y="450" width="140" height="50" rx="8" ry="8" fill="url(#processGradient)" stroke="#c0392b" stroke-width="2" filter="url(#shadow)"/>
    <circle cx="260" cy="465" r="8" fill="#6f42c1"/>
    <text x="260" y="470" text-anchor="middle" font-family="Arial, sans-serif" font-size="6" font-weight="bold" fill="#ffffff">GL</text>
    <text x="285" y="470" font-family="Arial, sans-serif" font-size="11" font-weight="bold" fill="#c62828">AWS Glue ETL</text>
    <text x="285" y="485" font-family="Arial, sans-serif" font-size="9" fill="#c62828">Data cleaning</text>

    <rect x="400" y="450" width="140" height="50" rx="8" ry="8" fill="url(#processGradient)" stroke="#c0392b" stroke-width="2" filter="url(#shadow)"/>
    <circle cx="420" cy="465" r="8" fill="#28a745"/>
    <text x="420" y="470" text-anchor="middle" font-family="Arial, sans-serif" font-size="6" font-weight="bold" fill="#ffffff">SM</text>
    <text x="445" y="470" font-family="Arial, sans-serif" font-size="11" font-weight="bold" fill="#c62828">SageMaker</text>
    <text x="445" y="485" font-family="Arial, sans-serif" font-size="9" fill="#c62828">ML training</text>

    <rect x="560" y="450" width="140" height="50" rx="8" ry="8" fill="url(#processGradient)" stroke="#c0392b" stroke-width="2" filter="url(#shadow)"/>
    <circle cx="580" cy="465" r="8" fill="#17a2b8"/>
    <text x="580" y="470" text-anchor="middle" font-family="Arial, sans-serif" font-size="6" font-weight="bold" fill="#ffffff">CP</text>
    <text x="605" y="470" font-family="Arial, sans-serif" font-size="11" font-weight="bold" fill="#c62828">Comprehend</text>
    <text x="605" y="485" font-family="Arial, sans-serif" font-size="9" fill="#c62828">Sentiment analysis</text>

    <rect x="720" y="450" width="140" height="50" rx="8" ry="8" fill="url(#processGradient)" stroke="#c0392b" stroke-width="2" filter="url(#shadow)"/>
    <circle cx="740" cy="465" r="8" fill="#ffc107"/>
    <text x="740" y="470" text-anchor="middle" font-family="Arial, sans-serif" font-size="6" font-weight="bold" fill="#000000">λ</text>
    <text x="765" y="470" font-family="Arial, sans-serif" font-size="11" font-weight="bold" fill="#c62828">Lambda Functions</text>
    <text x="765" y="485" font-family="Arial, sans-serif" font-size="9" fill="#c62828">Event processing</text>

    <rect x="880" y="450" width="140" height="50" rx="8" ry="8" fill="url(#processGradient)" stroke="#c0392b" stroke-width="2" filter="url(#shadow)"/>
    <circle cx="900" cy="465" r="8" fill="#dc3545"/>
    <text x="900" y="470" text-anchor="middle" font-family="Arial, sans-serif" font-size="6" font-weight="bold" fill="#ffffff">BR</text>
    <text x="925" y="470" font-family="Arial, sans-serif" font-size="11" font-weight="bold" fill="#c62828">Bedrock LLMs</text>
    <text x="925" y="485" font-family="Arial, sans-serif" font-size="9" fill="#c62828">Advanced insights</text>
  </g>

  <!-- Capa 5: Analitica y Visualizacion -->
  <g id="analyticsLayer">
    <rect x="50" y="530" width="1100" height="100" rx="10" ry="10" fill="url(#analyticsGradient)" stroke="#ff8f00" stroke-width="2" filter="url(#shadow)"/>
    <text x="70" y="555" font-family="Arial, sans-serif" font-size="16" font-weight="bold" fill="#f57c00">CAPA DE ANALITICA Y VISUALIZACION</text>

    <rect x="100" y="570" width="140" height="50" rx="5" ry="5" fill="#27ae60" stroke="#229954" stroke-width="1"/>
    <text x="170" y="590" text-anchor="middle" font-family="Arial, sans-serif" font-size="11" font-weight="bold" fill="#ffffff">Athena</text>
    <text x="170" y="605" text-anchor="middle" font-family="Arial, sans-serif" font-size="9" fill="#ffffff">SQL queries on S3</text>

    <rect x="260" y="570" width="140" height="50" rx="5" ry="5" fill="#27ae60" stroke="#229954" stroke-width="1"/>
    <text x="330" y="590" text-anchor="middle" font-family="Arial, sans-serif" font-size="11" font-weight="bold" fill="#ffffff">QuickSight</text>
    <text x="330" y="605" text-anchor="middle" font-family="Arial, sans-serif" font-size="9" fill="#ffffff">Interactive dashboards</text>

    <rect x="420" y="570" width="140" height="50" rx="5" ry="5" fill="#27ae60" stroke="#229954" stroke-width="1"/>
    <text x="490" y="590" text-anchor="middle" font-family="Arial, sans-serif" font-size="11" font-weight="bold" fill="#ffffff">Custom Apps</text>
    <text x="490" y="605" text-anchor="middle" font-family="Arial, sans-serif" font-size="9" fill="#ffffff">React dashboards</text>

    <rect x="580" y="570" width="140" height="50" rx="5" ry="5" fill="#27ae60" stroke="#229954" stroke-width="1"/>
    <text x="650" y="590" text-anchor="middle" font-family="Arial, sans-serif" font-size="11" font-weight="bold" fill="#ffffff">REST APIs</text>
    <text x="650" y="605" text-anchor="middle" font-family="Arial, sans-serif" font-size="9" fill="#ffffff">External integrations</text>

    <rect x="740" y="570" width="140" height="50" rx="5" ry="5" fill="#27ae60" stroke="#229954" stroke-width="1"/>
    <text x="810" y="590" text-anchor="middle" font-family="Arial, sans-serif" font-size="11" font-weight="bold" fill="#ffffff">Automated Reports</text>
    <text x="810" y="605" text-anchor="middle" font-family="Arial, sans-serif" font-size="9" fill="#ffffff">Scheduled delivery</text>

    <rect x="900" y="570" width="140" height="50" rx="5" ry="5" fill="#27ae60" stroke="#229954" stroke-width="1"/>
    <text x="970" y="590" text-anchor="middle" font-family="Arial, sans-serif" font-size="11" font-weight="bold" fill="#ffffff">Real-time Alerts</text>
    <text x="970" y="605" text-anchor="middle" font-family="Arial, sans-serif" font-size="9" fill="#ffffff">SNS notifications</text>
  </g>

  <!-- Capas Transversales -->
  <g id="crossLayers">
    <!-- Seguridad -->
    <rect x="50" y="650" width="350" height="70" rx="10" ry="10" fill="url(#securityGradient)" stroke="#7b1fa2" stroke-width="2" filter="url(#shadow)"/>
    <text x="70" y="675" font-family="Arial, sans-serif" font-size="14" font-weight="bold" fill="#6a1b9a">SEGURIDAD Y GOVERNANCE</text>

    <rect x="70" y="685" width="90" height="25" rx="3" ry="3" fill="#9b59b6" stroke="#8e44ad" stroke-width="1"/>
    <text x="115" y="700" text-anchor="middle" font-family="Arial, sans-serif" font-size="10" font-weight="bold" fill="#ffffff">IAM/Cognito</text>

    <rect x="175" y="685" width="90" height="25" rx="3" ry="3" fill="#9b59b6" stroke="#8e44ad" stroke-width="1"/>
    <text x="220" y="700" text-anchor="middle" font-family="Arial, sans-serif" font-size="10" font-weight="bold" fill="#ffffff">Encryption</text>

    <rect x="280" y="685" width="90" height="25" rx="3" ry="3" fill="#9b59b6" stroke="#8e44ad" stroke-width="1"/>
    <text x="325" y="700" text-anchor="middle" font-family="Arial, sans-serif" font-size="10" font-weight="bold" fill="#ffffff">GDPR</text>

    <!-- Monitoreo -->
    <rect x="430" y="650" width="350" height="70" rx="10" ry="10" fill="url(#securityGradient)" stroke="#7b1fa2" stroke-width="2" filter="url(#shadow)"/>
    <text x="450" y="675" font-family="Arial, sans-serif" font-size="14" font-weight="bold" fill="#6a1b9a">MONITOREO Y OBSERVABILIDAD</text>

    <rect x="450" y="685" width="90" height="25" rx="3" ry="3" fill="#f39c12" stroke="#e67e22" stroke-width="1"/>
    <text x="495" y="700" text-anchor="middle" font-family="Arial, sans-serif" font-size="10" font-weight="bold" fill="#ffffff">CloudWatch</text>

    <rect x="555" y="685" width="90" height="25" rx="3" ry="3" fill="#f39c12" stroke="#e67e22" stroke-width="1"/>
    <text x="600" y="700" text-anchor="middle" font-family="Arial, sans-serif" font-size="10" font-weight="bold" fill="#ffffff">X-Ray</text>

    <rect x="660" y="685" width="90" height="25" rx="3" ry="3" fill="#f39c12" stroke="#e67e22" stroke-width="1"/>
    <text x="705" y="700" text-anchor="middle" font-family="Arial, sans-serif" font-size="10" font-weight="bold" fill="#ffffff">Cost Explorer</text>

    <!-- Optimizacion -->
    <rect x="810" y="650" width="340" height="70" rx="10" ry="10" fill="url(#securityGradient)" stroke="#7b1fa2" stroke-width="2" filter="url(#shadow)"/>
    <text x="830" y="675" font-family="Arial, sans-serif" font-size="14" font-weight="bold" fill="#6a1b9a">OPTIMIZACION DE COSTOS</text>

    <rect x="830" y="685" width="80" height="25" rx="3" ry="3" fill="#f39c12" stroke="#e67e22" stroke-width="1"/>
    <text x="870" y="700" text-anchor="middle" font-family="Arial, sans-serif" font-size="10" font-weight="bold" fill="#ffffff">Budgets</text>

    <rect x="925" y="685" width="80" height="25" rx="3" ry="3" fill="#f39c12" stroke="#e67e22" stroke-width="1"/>
    <text x="965" y="700" text-anchor="middle" font-family="Arial, sans-serif" font-size="10" font-weight="bold" fill="#ffffff">Auto Scaling</text>

    <rect x="1020" y="685" width="100" height="25" rx="3" ry="3" fill="#f39c12" stroke="#e67e22" stroke-width="1"/>
    <text x="1070" y="700" text-anchor="middle" font-family="Arial, sans-serif" font-size="10" font-weight="bold" fill="#ffffff">Reserved Instances</text>
  </g>

  <!-- Flechas de flujo elegantes -->
  <g id="dataFlow">
    <!-- De fuentes a ingesta -->
    <path d="M 150 180 L 290 245" stroke="#667eea" stroke-width="2" fill="none" marker-end="url(#arrow)" opacity="0.7"/>
    <path d="M 310 180 L 410 245" stroke="#667eea" stroke-width="2" fill="none" marker-end="url(#arrow)" opacity="0.7"/>
    <path d="M 470 180 L 510 245" stroke="#667eea" stroke-width="2" fill="none" marker-end="url(#arrow)" opacity="0.7"/>
    <path d="M 630 180 L 610 245" stroke="#667eea" stroke-width="2" fill="none" marker-end="url(#arrow)" opacity="0.7"/>
    <path d="M 790 180 L 730 245" stroke="#667eea" stroke-width="2" fill="none" marker-end="url(#arrow)" opacity="0.7"/>

    <!-- De ingesta a almacenamiento -->
    <path d="M 290 280 L 200 345" stroke="#28a745" stroke-width="2" fill="none" marker-end="url(#arrow)" opacity="0.7"/>
    <path d="M 510 280 L 380 345" stroke="#28a745" stroke-width="2" fill="none" marker-end="url(#arrow)" opacity="0.7"/>
    <path d="M 730 280 L 560 345" stroke="#28a745" stroke-width="2" fill="none" marker-end="url(#arrow)" opacity="0.7"/>

    <!-- De almacenamiento a procesamiento -->
    <path d="M 200 380 L 150 450" stroke="#6c757d" stroke-width="2" fill="none" marker-end="url(#arrow)" opacity="0.7"/>
    <path d="M 380 380 L 310 450" stroke="#6c757d" stroke-width="2" fill="none" marker-end="url(#arrow)" opacity="0.7"/>
    <path d="M 560 380 L 470 450" stroke="#6c757d" stroke-width="2" fill="none" marker-end="url(#arrow)" opacity="0.7"/>
    <path d="M 740 380 L 630 450" stroke="#6c757d" stroke-width="2" fill="none" marker-end="url(#arrow)" opacity="0.7"/>
    <path d="M 920 380 L 790 450" stroke="#6c757d" stroke-width="2" fill="none" marker-end="url(#arrow)" opacity="0.7"/>

    <!-- De procesamiento a analítica -->
    <path d="M 150 500 L 170 570" stroke="#17a2b8" stroke-width="2" fill="none" marker-end="url(#arrow)" opacity="0.7"/>
    <path d="M 310 500 L 330 570" stroke="#17a2b8" stroke-width="2" fill="none" marker-end="url(#arrow)" opacity="0.7"/>
    <path d="M 470 500 L 490 570" stroke="#17a2b8" stroke-width="2" fill="none" marker-end="url(#arrow)" opacity="0.7"/>
    <path d="M 630 500 L 650 570" stroke="#17a2b8" stroke-width="2" fill="none" marker-end="url(#arrow)" opacity="0.7"/>
    <path d="M 790 500 L 810 570" stroke="#17a2b8" stroke-width="2" fill="none" marker-end="url(#arrow)" opacity="0.7"/>
    <path d="M 950 500 L 970 570" stroke="#17a2b8" stroke-width="2" fill="none" marker-end="url(#arrow)" opacity="0.7"/>
  </g>

  <!-- Beneficios esperados -->
  <rect x="50" y="740" width="1100" height="70" rx="10" ry="10" fill="#e8f5e8" stroke="#27ae60" stroke-width="2" filter="url(#shadow)"/>
  <text x="600" y="765" text-anchor="middle" font-family="Arial, sans-serif" font-size="16" font-weight="bold" fill="#2e7d32">BENEFICIOS ESPERADOS DE LA ARQUITECTURA</text>

  <text x="200" y="785" text-anchor="middle" font-family="Arial, sans-serif" font-size="11" fill="#333">90% Reduccion en tiempo de insights</text>
  <text x="450" y="785" text-anchor="middle" font-family="Arial, sans-serif" font-size="11" fill="#333">60% Mejora en precision de predicciones</text>
  <text x="700" y="785" text-anchor="middle" font-family="Arial, sans-serif" font-size="11" fill="#333">15% Aumento en retencion de clientes</text>
  <text x="950" y="785" text-anchor="middle" font-family="Arial, sans-serif" font-size="11" fill="#333">80% Automatizacion de procesos</text>

  <text x="200" y="800" text-anchor="middle" font-family="Arial, sans-serif" font-size="11" fill="#333">ROI positivo en 6-8 meses</text>
  <text x="450" y="800" text-anchor="middle" font-family="Arial, sans-serif" font-size="11" fill="#333">Time-to-market 50% mas rapido</text>
  <text x="700" y="800" text-anchor="middle" font-family="Arial, sans-serif" font-size="11" fill="#333">Decisiones basadas en datos real-time</text>
  <text x="950" y="800" text-anchor="middle" font-family="Arial, sans-serif" font-size="11" fill="#333">Experiencia de cliente personalizada</text>
</svg>