<svg width="1200" height="900" xmlns="http://www.w3.org/2000/svg">
  <defs>
    <!-- Gradientes para cada capa -->
    <linearGradient id="dataGradient" x1="0%" y1="0%" x2="100%" y2="100%">
      <stop offset="0%" style="stop-color:#e3f2fd;stop-opacity:0.9" />
      <stop offset="100%" style="stop-color:#bbdefb;stop-opacity:0.9" />
    </linearGradient>
    <linearGradient id="processGradient" x1="0%" y1="0%" x2="100%" y2="100%">
      <stop offset="0%" style="stop-color:#ffebee;stop-opacity:0.9" />
      <stop offset="100%" style="stop-color:#ffcdd2;stop-opacity:0.9" />
    </linearGradient>
    <linearGradient id="storageGradient" x1="0%" y1="0%" x2="100%" y2="100%">
      <stop offset="0%" style="stop-color:#e8f5e8;stop-opacity:0.9" />
      <stop offset="100%" style="stop-color:#c8e6c9;stop-opacity:0.9" />
    </linearGradient>
    <linearGradient id="analyticsGradient" x1="0%" y1="0%" x2="100%" y2="100%">
      <stop offset="0%" style="stop-color:#fff3e0;stop-opacity:0.9" />
      <stop offset="100%" style="stop-color:#ffe0b2;stop-opacity:0.9" />
    </linearGradient>
    <linearGradient id="securityGradient" x1="0%" y1="0%" x2="100%" y2="100%">
      <stop offset="0%" style="stop-color:#f3e5f5;stop-opacity:0.9" />
      <stop offset="100%" style="stop-color:#e1bee7;stop-opacity:0.9" />
    </linearGradient>
    <linearGradient id="awsBlue" x1="0%" y1="0%" x2="100%" y2="100%">
      <stop offset="0%" style="stop-color:#232f3e;stop-opacity:0.9" />
      <stop offset="100%" style="stop-color:#4a5568;stop-opacity:0.9" />
    </linearGradient>
    <linearGradient id="techGradient" x1="0%" y1="0%" x2="100%" y2="100%">
      <stop offset="0%" style="stop-color:#667eea;stop-opacity:0.9" />
      <stop offset="100%" style="stop-color:#764ba2;stop-opacity:0.9" />
    </linearGradient>

    <!-- Filtros mejorados -->
    <filter id="shadow" x="-20%" y="-20%" width="140%" height="140%">
      <feDropShadow dx="2" dy="2" stdDeviation="3" flood-color="#000000" flood-opacity="0.15"/>
    </filter>

    <!-- Flecha simple y elegante -->
    <marker id="arrow" markerWidth="8" markerHeight="6" refX="7" refY="3" orient="auto" markerUnits="strokeWidth">
      <path d="M0,0 L0,6 L8,3 z" fill="#34495e"/>
    </marker>

    <!-- Patrones para iconos -->
    <pattern id="awsPattern" x="0" y="0" width="20" height="20" patternUnits="userSpaceOnUse">
      <rect width="20" height="20" fill="#ff9900"/>
      <text x="10" y="14" text-anchor="middle" font-family="Arial" font-size="12" font-weight="bold" fill="white">AWS</text>
    </pattern>
  </defs>

  <!-- Fondo -->
  <rect width="1200" height="900" fill="#f8f9fa" stroke="#dee2e6" stroke-width="2"/>

  <!-- Logo AWS -->
  <rect x="480" y="15" width="60" height="25" rx="5" ry="5" fill="#232f3e"/>
  <text x="510" y="32" text-anchor="middle" font-family="Arial, sans-serif" font-size="12" font-weight="bold" fill="#ffffff">AWS Cloud</text>

  <!-- Titulo -->
  <text x="600" y="40" text-anchor="middle" font-family="Arial, sans-serif" font-size="24" font-weight="bold" fill="#1f77b4">
    CUSTOMER SATISFACTION ANALYTICS - ARQUITECTURA TO BE
  </text>

  <text x="600" y="65" text-anchor="middle" font-family="Arial, sans-serif" font-size="14" fill="#666">
    Plataforma Empresarial Completa en AWS Cloud
  </text>

  <!-- Capa 1: Fuentes de Datos -->
  <g id="dataLayer">
    <rect x="50" y="90" width="1100" height="100" rx="10" ry="10" fill="url(#dataGradient)" stroke="#1976d2" stroke-width="2" filter="url(#shadow)"/>
    <text x="70" y="115" font-family="Arial, sans-serif" font-size="16" font-weight="bold" fill="#1565c0">CAPA DE INGESTA DE DATOS</text>

    <!-- Fuentes externas -->
    <rect x="80" y="125" width="140" height="55" rx="8" ry="8" fill="url(#dataGradient)" stroke="#2980b9" stroke-width="2" filter="url(#shadow)"/>
    <circle cx="105" cy="140" r="8" fill="#34495e"/>
    <text cx="105" cy="145" text-anchor="middle" font-family="Arial, sans-serif" font-size="10" font-weight="bold" fill="#ffffff">📞</text>
    <text x="125" y="145" font-family="Arial, sans-serif" font-size="12" font-weight="bold" fill="#2c3e50">Call Center</text>
    <text x="125" y="160" font-family="Arial, sans-serif" font-size="10" fill="#34495e">APIs de telefonia</text>

    <rect x="240" y="125" width="140" height="55" rx="8" ry="8" fill="url(#dataGradient)" stroke="#2980b9" stroke-width="2" filter="url(#shadow)"/>
    <circle cx="265" cy="140" r="8" fill="#25d366"/>
    <text cx="265" cy="145" text-anchor="middle" font-family="Arial, sans-serif" font-size="8" font-weight="bold" fill="#ffffff">WA</text>
    <text x="285" y="145" font-family="Arial, sans-serif" font-size="12" font-weight="bold" fill="#2c3e50">WhatsApp Business</text>
    <text x="285" y="160" font-family="Arial, sans-serif" font-size="10" fill="#34495e">Mensajes de chat</text>

    <rect x="400" y="125" width="140" height="55" rx="8" ry="8" fill="url(#dataGradient)" stroke="#2980b9" stroke-width="2" filter="url(#shadow)"/>
    <circle cx="425" cy="140" r="8" fill="#ffc107"/>
    <text cx="425" cy="145" text-anchor="middle" font-family="Arial, sans-serif" font-size="10" font-weight="bold" fill="#ffffff">★</text>
    <text x="445" y="145" font-family="Arial, sans-serif" font-size="12" font-weight="bold" fill="#2c3e50">Review Platforms</text>
    <text x="445" y="160" font-family="Arial, sans-serif" font-size="10" fill="#34495e">Google Reviews</text>

    <rect x="560" y="125" width="140" height="55" rx="8" ry="8" fill="url(#dataGradient)" stroke="#2980b9" stroke-width="2" filter="url(#shadow)"/>
    <circle cx="585" cy="140" r="8" fill="#007aff"/>
    <text cx="585" cy="145" text-anchor="middle" font-family="Arial, sans-serif" font-size="10" font-weight="bold" fill="#ffffff">📱</text>
    <text x="605" y="145" font-family="Arial, sans-serif" font-size="12" font-weight="bold" fill="#2c3e50">Mobile Apps</text>
    <text x="605" y="160" font-family="Arial, sans-serif" font-size="10" fill="#34495e">App feedback</text>

    <!-- Fuentes internas -->
    <rect x="720" y="125" width="140" height="55" rx="8" ry="8" fill="url(#dataGradient)" stroke="#2980b9" stroke-width="2" filter="url(#shadow)"/>
    <circle cx="745" cy="140" r="8" fill="#6c757d"/>
    <text cx="745" cy="145" text-anchor="middle" font-family="Arial, sans-serif" font-size="8" font-weight="bold" fill="#ffffff">DB</text>
    <text x="765" y="145" font-family="Arial, sans-serif" font-size="12" font-weight="bold" fill="#2c3e50">CRM Database</text>
    <text x="765" y="160" font-family="Arial, sans-serif" font-size="10" fill="#34495e">Customer data</text>

    <rect x="880" y="125" width="140" height="55" rx="8" ry="8" fill="url(#dataGradient)" stroke="#2980b9" stroke-width="2" filter="url(#shadow)"/>
    <circle cx="905" cy="140" r="8" fill="#dc3545"/>
    <text cx="905" cy="145" text-anchor="middle" font-family="Arial, sans-serif" font-size="8" font-weight="bold" fill="#ffffff">TK</text>
    <text x="925" y="145" font-family="Arial, sans-serif" font-size="12" font-weight="bold" fill="#2c3e50">Ticketing System</text>
    <text x="925" y="160" font-family="Arial, sans-serif" font-size="10" fill="#34495e">Support cases</text>

    <rect x="1040" y="125" width="100" height="55" rx="8" ry="8" fill="url(#dataGradient)" stroke="#2980b9" stroke-width="2" filter="url(#shadow)"/>
    <circle cx="1060" cy="140" r="8" fill="#28a745"/>
    <text cx="1060" cy="145" text-anchor="middle" font-family="Arial, sans-serif" font-size="8" font-weight="bold" fill="#ffffff">E</text>
    <text x="1075" y="145" font-family="Arial, sans-serif" font-size="11" font-weight="bold" fill="#2c3e50">ERP Systems</text>
    <text x="1075" y="160" font-family="Arial, sans-serif" font-size="9" fill="#34495e">Business data</text>
  </g>

  <!-- Capa 2: Ingesta y Routing -->
  <g id="ingestionLayer">
    <rect x="50" y="210" width="1100" height="80" rx="10" ry="10" fill="url(#dataGradient)" stroke="#1976d2" stroke-width="2" filter="url(#shadow)"/>
    <text x="70" y="235" font-family="Arial, sans-serif" font-size="16" font-weight="bold" fill="#1565c0">CAPA DE INGESTA Y ROUTING</text>

    <!-- AWS API Gateway -->
    <g transform="translate(200, 245)">
      <rect width="180" height="35" rx="8" ry="8" fill="#FF9500" stroke="#232F3E" stroke-width="2" filter="url(#shadow)"/>
      <g transform="translate(8, 5)">
        <rect x="0" y="0" width="24" height="24" fill="#FFFFFF" stroke="none" rx="2"/>
        <path d="M4 8h16M12 4l6 8-6 8" stroke="#FF9500" stroke-width="2" fill="none"/>
      </g>
      <text x="40" y="20" font-family="Arial, sans-serif" font-size="12" font-weight="bold" fill="#FFFFFF">AWS API Gateway</text>
    </g>

    <!-- Kinesis Data Streams -->
    <g transform="translate(420, 245)">
      <rect width="180" height="35" rx="8" ry="8" fill="#8C4FFF" stroke="#232F3E" stroke-width="2" filter="url(#shadow)"/>
      <g transform="translate(8, 5)">
        <rect x="0" y="0" width="24" height="24" fill="#FFFFFF" stroke="none" rx="2"/>
        <path d="M3 7h18l-3-3M3 12h18l-3-3M3 17h18l-3-3" stroke="#8C4FFF" stroke-width="2" fill="none"/>
      </g>
      <text x="40" y="20" font-family="Arial, sans-serif" font-size="12" font-weight="bold" fill="#FFFFFF">Kinesis Data Streams</text>
    </g>

    <!-- Kinesis Data Firehose -->
    <g transform="translate(640, 245)">
      <rect width="180" height="35" rx="8" ry="8" fill="#8C4FFF" stroke="#232F3E" stroke-width="2" filter="url(#shadow)"/>
      <g transform="translate(8, 5)">
        <rect x="0" y="0" width="24" height="24" fill="#FFFFFF" stroke="none" rx="2"/>
        <path d="M12 3L3 8v8l9 5 9-5V8l-9-5zM12 12L3 8M12 12v8M12 12l9-5" stroke="#8C4FFF" stroke-width="2" fill="none"/>
      </g>
      <text x="40" y="20" font-family="Arial, sans-serif" font-size="12" font-weight="bold" fill="#FFFFFF">Kinesis Firehose</text>
    </g>
  </g>

  <!-- Capa 3: Almacenamiento -->
  <g id="storageLayer">
    <rect x="50" y="310" width="1100" height="80" rx="10" ry="10" fill="url(#storageGradient)" stroke="#388e3c" stroke-width="2" filter="url(#shadow)"/>
    <text x="70" y="335" font-family="Arial, sans-serif" font-size="16" font-weight="bold" fill="#2e7d32">CAPA DE ALMACENAMIENTO</text>

    <!-- S3 Raw Data Lake -->
    <g transform="translate(120, 345)">
      <rect width="160" height="35" rx="8" ry="8" fill="#569A31" stroke="#232F3E" stroke-width="2" filter="url(#shadow)"/>
      <g transform="translate(8, 5)">
        <rect x="0" y="0" width="24" height="24" fill="#FFFFFF" stroke="none" rx="2"/>
        <path d="M4 6h16v12H4zM8 6V2h8v4" stroke="#569A31" stroke-width="2" fill="none"/>
      </g>
      <text x="40" y="20" font-family="Arial, sans-serif" font-size="11" font-weight="bold" fill="#FFFFFF">S3 Raw Data Lake</text>
    </g>

    <!-- S3 Processed Data -->
    <g transform="translate(300, 345)">
      <rect width="160" height="35" rx="8" ry="8" fill="#569A31" stroke="#232F3E" stroke-width="2" filter="url(#shadow)"/>
      <g transform="translate(8, 5)">
        <rect x="0" y="0" width="24" height="24" fill="#FFFFFF" stroke="none" rx="2"/>
        <path d="M4 6h16v12H4zM8 6V2h8v4" stroke="#569A31" stroke-width="2" fill="none"/>
      </g>
      <text x="40" y="20" font-family="Arial, sans-serif" font-size="11" font-weight="bold" fill="#FFFFFF">S3 Processed Data</text>
    </g>

    <!-- S3 Analytics Ready -->
    <g transform="translate(480, 345)">
      <rect width="160" height="35" rx="8" ry="8" fill="#569A31" stroke="#232F3E" stroke-width="2" filter="url(#shadow)"/>
      <g transform="translate(8, 5)">
        <rect x="0" y="0" width="24" height="24" fill="#FFFFFF" stroke="none" rx="2"/>
        <path d="M4 6h16v12H4zM8 6V2h8v4" stroke="#569A31" stroke-width="2" fill="none"/>
      </g>
      <text x="40" y="20" font-family="Arial, sans-serif" font-size="11" font-weight="bold" fill="#FFFFFF">S3 Analytics Ready</text>
    </g>

    <!-- Redshift Data Warehouse -->
    <g transform="translate(660, 345)">
      <rect width="160" height="35" rx="8" ry="8" fill="#3F48CC" stroke="#232F3E" stroke-width="2" filter="url(#shadow)"/>
      <g transform="translate(8, 5)">
        <rect x="0" y="0" width="24" height="24" fill="#FFFFFF" stroke="none" rx="2"/>
        <path d="M12 2L2 7v10l10 5 10-5V7l-10-5zM2 7l10 5M12 12v10M12 12l10-5" stroke="#3F48CC" stroke-width="2" fill="none"/>
      </g>
      <text x="40" y="20" font-family="Arial, sans-serif" font-size="11" font-weight="bold" fill="#FFFFFF">Redshift DW</text>
    </g>

    <!-- AWS Glue Data Catalog -->
    <g transform="translate(840, 345)">
      <rect width="160" height="35" rx="8" ry="8" fill="#A166FF" stroke="#232F3E" stroke-width="2" filter="url(#shadow)"/>
      <g transform="translate(8, 5)">
        <rect x="0" y="0" width="24" height="24" fill="#FFFFFF" stroke="none" rx="2"/>
        <path d="M4 4h16v16H4zM8 8h8M8 12h8M8 16h8" stroke="#A166FF" stroke-width="2" fill="none"/>
      </g>
      <text x="40" y="20" font-family="Arial, sans-serif" font-size="11" font-weight="bold" fill="#FFFFFF">Glue Data Catalog</text>
    </g>
  </g>

  <!-- Capa 4: Procesamiento e IA -->
  <g id="processingLayer">
    <rect x="50" y="410" width="1100" height="100" rx="10" ry="10" fill="url(#processGradient)" stroke="#d32f2f" stroke-width="2" filter="url(#shadow)"/>
    <text x="70" y="435" font-family="Arial, sans-serif" font-size="16" font-weight="bold" fill="#c62828">CAPA DE PROCESAMIENTO E INTELIGENCIA</text>

    <!-- Kinesis Analytics -->
    <g transform="translate(80, 450)">
      <rect width="140" height="50" rx="8" ry="8" fill="#8C4FFF" stroke="#232F3E" stroke-width="2" filter="url(#shadow)"/>
      <g transform="translate(8, 8)">
        <rect x="0" y="0" width="24" height="24" fill="#FFFFFF" stroke="none" rx="2"/>
        <path d="M3 6h18l-3-3M3 12h18l-3-3M3 18h18l-3-3" stroke="#8C4FFF" stroke-width="2" fill="none"/>
      </g>
      <text x="40" y="22" font-family="Arial, sans-serif" font-size="11" font-weight="bold" fill="#FFFFFF">Kinesis Analytics</text>
      <text x="40" y="36" font-family="Arial, sans-serif" font-size="9" fill="#DDD0FF">Real-time processing</text>
    </g>

    <!-- AWS Glue ETL -->
    <g transform="translate(240, 450)">
      <rect width="140" height="50" rx="8" ry="8" fill="#A166FF" stroke="#232F3E" stroke-width="2" filter="url(#shadow)"/>
      <g transform="translate(8, 8)">
        <rect x="0" y="0" width="24" height="24" fill="#FFFFFF" stroke="none" rx="2"/>
        <path d="M4 4h16v16H4zM8 8h8M8 12h8M8 16h8" stroke="#A166FF" stroke-width="2" fill="none"/>
      </g>
      <text x="40" y="22" font-family="Arial, sans-serif" font-size="11" font-weight="bold" fill="#FFFFFF">AWS Glue ETL</text>
      <text x="40" y="36" font-family="Arial, sans-serif" font-size="9" fill="#E6D7FF">Data cleaning</text>
    </g>

    <!-- SageMaker -->
    <g transform="translate(400, 450)">
      <rect width="140" height="50" rx="8" ry="8" fill="#01A88D" stroke="#232F3E" stroke-width="2" filter="url(#shadow)"/>
      <g transform="translate(8, 8)">
        <rect x="0" y="0" width="24" height="24" fill="#FFFFFF" stroke="none" rx="2"/>
        <path d="M12 2C6.48 2 2 6.48 2 12s4.48 10 10 10 10-4.48 10-10S17.52 2 12 2zm-2 15l-5-5 1.41-1.41L10 14.17l7.59-7.59L19 8l-9 9z" stroke="#01A88D" stroke-width="2" fill="none"/>
      </g>
      <text x="40" y="22" font-family="Arial, sans-serif" font-size="11" font-weight="bold" fill="#FFFFFF">SageMaker</text>
      <text x="40" y="36" font-family="Arial, sans-serif" font-size="9" fill="#B3F0E8">ML training</text>
    </g>

    <!-- Comprehend -->
    <g transform="translate(560, 450)">
      <rect width="140" height="50" rx="8" ry="8" fill="#01A88D" stroke="#232F3E" stroke-width="2" filter="url(#shadow)"/>
      <g transform="translate(8, 8)">
        <rect x="0" y="0" width="24" height="24" fill="#FFFFFF" stroke="none" rx="2"/>
        <path d="M9 11H7v2h2v-2zm4 0h-2v2h2v-2zm4 0h-2v2h2v-2zm2-7h-3V2h-2v2H8V2H6v2H3v18h18V4z" stroke="#01A88D" stroke-width="2" fill="none"/>
      </g>
      <text x="40" y="22" font-family="Arial, sans-serif" font-size="11" font-weight="bold" fill="#FFFFFF">Comprehend</text>
      <text x="40" y="36" font-family="Arial, sans-serif" font-size="9" fill="#B3F0E8">Sentiment analysis</text>
    </g>

    <!-- Lambda Functions -->
    <g transform="translate(720, 450)">
      <rect width="140" height="50" rx="8" ry="8" fill="#FF9900" stroke="#232F3E" stroke-width="2" filter="url(#shadow)"/>
      <g transform="translate(8, 8)">
        <rect x="0" y="0" width="24" height="24" fill="#FFFFFF" stroke="none" rx="2"/>
        <path d="M6 2L12 8L18 2" stroke="#FF9900" stroke-width="2" fill="none"/>
        <text x="12" y="18" text-anchor="middle" font-family="Arial, sans-serif" font-size="14" font-weight="bold" fill="#FF9900">λ</text>
      </g>
      <text x="40" y="22" font-family="Arial, sans-serif" font-size="11" font-weight="bold" fill="#FFFFFF">Lambda Functions</text>
      <text x="40" y="36" font-family="Arial, sans-serif" font-size="9" fill="#FFE0B3">Event processing</text>
    </g>

    <!-- Bedrock LLMs -->
    <g transform="translate(880, 450)">
      <rect width="140" height="50" rx="8" ry="8" fill="#01A88D" stroke="#232F3E" stroke-width="2" filter="url(#shadow)"/>
      <g transform="translate(8, 8)">
        <rect x="0" y="0" width="24" height="24" fill="#FFFFFF" stroke="none" rx="2"/>
        <path d="M12 2L2 7v10l10 5 10-5V7l-10-5zM12 12L2 7M12 12v10M12 12l10-5" stroke="#01A88D" stroke-width="2" fill="none"/>
      </g>
      <text x="40" y="22" font-family="Arial, sans-serif" font-size="11" font-weight="bold" fill="#FFFFFF">Bedrock LLMs</text>
      <text x="40" y="36" font-family="Arial, sans-serif" font-size="9" fill="#B3F0E8">Advanced insights</text>
    </g>
  </g>

  <!-- Capa 5: Analitica y Visualizacion -->
  <g id="analyticsLayer">
    <rect x="50" y="530" width="1100" height="100" rx="10" ry="10" fill="url(#analyticsGradient)" stroke="#ff8f00" stroke-width="2" filter="url(#shadow)"/>
    <text x="70" y="555" font-family="Arial, sans-serif" font-size="16" font-weight="bold" fill="#f57c00">CAPA DE ANALITICA Y VISUALIZACION</text>

    <!-- Athena -->
    <g transform="translate(100, 570)">
      <rect width="140" height="50" rx="8" ry="8" fill="#8C4FFF" stroke="#232F3E" stroke-width="2" filter="url(#shadow)"/>
      <g transform="translate(8, 8)">
        <rect x="0" y="0" width="24" height="24" fill="#FFFFFF" stroke="none" rx="2"/>
        <path d="M4 6h16v12H4zM8 10h8M8 14h8" stroke="#8C4FFF" stroke-width="2" fill="none"/>
      </g>
      <text x="40" y="22" font-family="Arial, sans-serif" font-size="11" font-weight="bold" fill="#FFFFFF">Athena</text>
      <text x="40" y="36" font-family="Arial, sans-serif" font-size="9" fill="#DDD0FF">SQL queries on S3</text>
    </g>

    <!-- QuickSight -->
    <g transform="translate(260, 570)">
      <rect width="140" height="50" rx="8" ry="8" fill="#0073BB" stroke="#232F3E" stroke-width="2" filter="url(#shadow)"/>
      <g transform="translate(8, 8)">
        <rect x="0" y="0" width="24" height="24" fill="#FFFFFF" stroke="none" rx="2"/>
        <path d="M3 3h18v18H3zM8 8h8v8H8z" stroke="#0073BB" stroke-width="2" fill="none"/>
        <path d="M10 12l2 2 4-4" stroke="#0073BB" stroke-width="2" fill="none"/>
      </g>
      <text x="40" y="22" font-family="Arial, sans-serif" font-size="11" font-weight="bold" fill="#FFFFFF">QuickSight</text>
      <text x="40" y="36" font-family="Arial, sans-serif" font-size="9" fill="#B3D9F0">Interactive dashboards</text>
    </g>

    <!-- Custom Apps -->
    <g transform="translate(420, 570)">
      <rect width="140" height="50" rx="8" ry="8" fill="#667EEA" stroke="#232F3E" stroke-width="2" filter="url(#shadow)"/>
      <g transform="translate(8, 8)">
        <rect x="0" y="0" width="24" height="24" fill="#FFFFFF" stroke="none" rx="2"/>
        <path d="M13 3h8v8h-8V3zM3 13h8v8H3v-8z" stroke="#667EEA" stroke-width="2" fill="none"/>
        <path d="M3 3h8v8H3V3z" stroke="#667EEA" stroke-width="2" fill="none"/>
      </g>
      <text x="40" y="22" font-family="Arial, sans-serif" font-size="11" font-weight="bold" fill="#FFFFFF">Custom Apps</text>
      <text x="40" y="36" font-family="Arial, sans-serif" font-size="9" fill="#E6EBFF">React dashboards</text>
    </g>

    <!-- REST APIs -->
    <g transform="translate(580, 570)">
      <rect width="140" height="50" rx="8" ry="8" fill="#FF9500" stroke="#232F3E" stroke-width="2" filter="url(#shadow)"/>
      <g transform="translate(8, 8)">
        <rect x="0" y="0" width="24" height="24" fill="#FFFFFF" stroke="none" rx="2"/>
        <path d="M4 12h16M12 4l8 8-8 8" stroke="#FF9500" stroke-width="2" fill="none"/>
      </g>
      <text x="40" y="22" font-family="Arial, sans-serif" font-size="11" font-weight="bold" fill="#FFFFFF">REST APIs</text>
      <text x="40" y="36" font-family="Arial, sans-serif" font-size="9" fill="#FFE0B3">External integrations</text>
    </g>

    <!-- Automated Reports -->
    <g transform="translate(740, 570)">
      <rect width="140" height="50" rx="8" ry="8" fill="#4CAF50" stroke="#232F3E" stroke-width="2" filter="url(#shadow)"/>
      <g transform="translate(8, 8)">
        <rect x="0" y="0" width="24" height="24" fill="#FFFFFF" stroke="none" rx="2"/>
        <path d="M14 2H6a2 2 0 0 0-2 2v16a2 2 0 0 0 2 2h12a2 2 0 0 0 2-2V8l-6-6z" stroke="#4CAF50" stroke-width="2" fill="none"/>
        <path d="M14 2v6h6M16 13H8M16 17H8M10 9H8" stroke="#4CAF50" stroke-width="2" fill="none"/>
      </g>
      <text x="40" y="22" font-family="Arial, sans-serif" font-size="11" font-weight="bold" fill="#FFFFFF">Automated Reports</text>
      <text x="40" y="36" font-family="Arial, sans-serif" font-size="9" fill="#C8E6C9">Scheduled delivery</text>
    </g>

    <!-- Real-time Alerts -->
    <g transform="translate(900, 570)">
      <rect width="140" height="50" rx="8" ry="8" fill="#B0084D" stroke="#232F3E" stroke-width="2" filter="url(#shadow)"/>
      <g transform="translate(8, 8)">
        <rect x="0" y="0" width="24" height="24" fill="#FFFFFF" stroke="none" rx="2"/>
        <path d="M18 8A6 6 0 0 0 6 8c0 7-3 9-3 9h18s-3-2-3-9" stroke="#B0084D" stroke-width="2" fill="none"/>
        <path d="M13.73 21a2 2 0 0 1-3.46 0" stroke="#B0084D" stroke-width="2" fill="none"/>
      </g>
      <text x="40" y="22" font-family="Arial, sans-serif" font-size="11" font-weight="bold" fill="#FFFFFF">Real-time Alerts</text>
      <text x="40" y="36" font-family="Arial, sans-serif" font-size="9" fill="#FFB3C6">SNS notifications</text>
    </g>
  </g>

  <!-- Capas Transversales -->
  <g id="crossLayers">
    <!-- Seguridad -->
    <rect x="50" y="650" width="350" height="70" rx="10" ry="10" fill="url(#securityGradient)" stroke="#7b1fa2" stroke-width="2" filter="url(#shadow)"/>
    <text x="70" y="675" font-family="Arial, sans-serif" font-size="14" font-weight="bold" fill="#6a1b9a">SEGURIDAD Y GOVERNANCE</text>

    <rect x="70" y="685" width="90" height="25" rx="3" ry="3" fill="#9b59b6" stroke="#8e44ad" stroke-width="1"/>
    <text x="115" y="700" text-anchor="middle" font-family="Arial, sans-serif" font-size="10" font-weight="bold" fill="#ffffff">IAM/Cognito</text>

    <rect x="175" y="685" width="90" height="25" rx="3" ry="3" fill="#9b59b6" stroke="#8e44ad" stroke-width="1"/>
    <text x="220" y="700" text-anchor="middle" font-family="Arial, sans-serif" font-size="10" font-weight="bold" fill="#ffffff">Encryption</text>

    <rect x="280" y="685" width="90" height="25" rx="3" ry="3" fill="#9b59b6" stroke="#8e44ad" stroke-width="1"/>
    <text x="325" y="700" text-anchor="middle" font-family="Arial, sans-serif" font-size="10" font-weight="bold" fill="#ffffff">GDPR</text>

    <!-- Monitoreo -->
    <rect x="430" y="650" width="350" height="70" rx="10" ry="10" fill="url(#securityGradient)" stroke="#7b1fa2" stroke-width="2" filter="url(#shadow)"/>
    <text x="450" y="675" font-family="Arial, sans-serif" font-size="14" font-weight="bold" fill="#6a1b9a">MONITOREO Y OBSERVABILIDAD</text>

    <rect x="450" y="685" width="90" height="25" rx="3" ry="3" fill="#f39c12" stroke="#e67e22" stroke-width="1"/>
    <text x="495" y="700" text-anchor="middle" font-family="Arial, sans-serif" font-size="10" font-weight="bold" fill="#ffffff">CloudWatch</text>

    <rect x="555" y="685" width="90" height="25" rx="3" ry="3" fill="#f39c12" stroke="#e67e22" stroke-width="1"/>
    <text x="600" y="700" text-anchor="middle" font-family="Arial, sans-serif" font-size="10" font-weight="bold" fill="#ffffff">X-Ray</text>

    <rect x="660" y="685" width="90" height="25" rx="3" ry="3" fill="#f39c12" stroke="#e67e22" stroke-width="1"/>
    <text x="705" y="700" text-anchor="middle" font-family="Arial, sans-serif" font-size="10" font-weight="bold" fill="#ffffff">Cost Explorer</text>

    <!-- Optimizacion -->
    <rect x="810" y="650" width="340" height="70" rx="10" ry="10" fill="url(#securityGradient)" stroke="#7b1fa2" stroke-width="2" filter="url(#shadow)"/>
    <text x="830" y="675" font-family="Arial, sans-serif" font-size="14" font-weight="bold" fill="#6a1b9a">OPTIMIZACION DE COSTOS</text>

    <rect x="830" y="685" width="80" height="25" rx="3" ry="3" fill="#f39c12" stroke="#e67e22" stroke-width="1"/>
    <text x="870" y="700" text-anchor="middle" font-family="Arial, sans-serif" font-size="10" font-weight="bold" fill="#ffffff">Budgets</text>

    <rect x="925" y="685" width="80" height="25" rx="3" ry="3" fill="#f39c12" stroke="#e67e22" stroke-width="1"/>
    <text x="965" y="700" text-anchor="middle" font-family="Arial, sans-serif" font-size="10" font-weight="bold" fill="#ffffff">Auto Scaling</text>

    <rect x="1020" y="685" width="100" height="25" rx="3" ry="3" fill="#f39c12" stroke="#e67e22" stroke-width="1"/>
    <text x="1070" y="700" text-anchor="middle" font-family="Arial, sans-serif" font-size="10" font-weight="bold" fill="#ffffff">Reserved Instances</text>
  </g>

  <!-- Flechas de flujo elegantes -->
  <g id="dataFlow">
    <!-- De fuentes a ingesta -->
    <path d="M 150 180 L 290 245" stroke="#667eea" stroke-width="2" fill="none" marker-end="url(#arrow)" opacity="0.7"/>
    <path d="M 310 180 L 410 245" stroke="#667eea" stroke-width="2" fill="none" marker-end="url(#arrow)" opacity="0.7"/>
    <path d="M 470 180 L 510 245" stroke="#667eea" stroke-width="2" fill="none" marker-end="url(#arrow)" opacity="0.7"/>
    <path d="M 630 180 L 610 245" stroke="#667eea" stroke-width="2" fill="none" marker-end="url(#arrow)" opacity="0.7"/>
    <path d="M 790 180 L 730 245" stroke="#667eea" stroke-width="2" fill="none" marker-end="url(#arrow)" opacity="0.7"/>

    <!-- De ingesta a almacenamiento -->
    <path d="M 290 280 L 200 345" stroke="#28a745" stroke-width="2" fill="none" marker-end="url(#arrow)" opacity="0.7"/>
    <path d="M 510 280 L 380 345" stroke="#28a745" stroke-width="2" fill="none" marker-end="url(#arrow)" opacity="0.7"/>
    <path d="M 730 280 L 560 345" stroke="#28a745" stroke-width="2" fill="none" marker-end="url(#arrow)" opacity="0.7"/>

    <!-- De almacenamiento a procesamiento -->
    <path d="M 200 380 L 150 450" stroke="#6c757d" stroke-width="2" fill="none" marker-end="url(#arrow)" opacity="0.7"/>
    <path d="M 380 380 L 310 450" stroke="#6c757d" stroke-width="2" fill="none" marker-end="url(#arrow)" opacity="0.7"/>
    <path d="M 560 380 L 470 450" stroke="#6c757d" stroke-width="2" fill="none" marker-end="url(#arrow)" opacity="0.7"/>
    <path d="M 740 380 L 630 450" stroke="#6c757d" stroke-width="2" fill="none" marker-end="url(#arrow)" opacity="0.7"/>
    <path d="M 920 380 L 790 450" stroke="#6c757d" stroke-width="2" fill="none" marker-end="url(#arrow)" opacity="0.7"/>

    <!-- De procesamiento a analítica -->
    <path d="M 150 500 L 170 570" stroke="#17a2b8" stroke-width="2" fill="none" marker-end="url(#arrow)" opacity="0.7"/>
    <path d="M 310 500 L 330 570" stroke="#17a2b8" stroke-width="2" fill="none" marker-end="url(#arrow)" opacity="0.7"/>
    <path d="M 470 500 L 490 570" stroke="#17a2b8" stroke-width="2" fill="none" marker-end="url(#arrow)" opacity="0.7"/>
    <path d="M 630 500 L 650 570" stroke="#17a2b8" stroke-width="2" fill="none" marker-end="url(#arrow)" opacity="0.7"/>
    <path d="M 790 500 L 810 570" stroke="#17a2b8" stroke-width="2" fill="none" marker-end="url(#arrow)" opacity="0.7"/>
    <path d="M 950 500 L 970 570" stroke="#17a2b8" stroke-width="2" fill="none" marker-end="url(#arrow)" opacity="0.7"/>
  </g>

  <!-- Beneficios esperados -->
  <rect x="50" y="740" width="1100" height="70" rx="10" ry="10" fill="#e8f5e8" stroke="#27ae60" stroke-width="2" filter="url(#shadow)"/>
  <text x="600" y="765" text-anchor="middle" font-family="Arial, sans-serif" font-size="16" font-weight="bold" fill="#2e7d32">BENEFICIOS ESPERADOS DE LA ARQUITECTURA</text>

  <text x="200" y="785" text-anchor="middle" font-family="Arial, sans-serif" font-size="11" fill="#333">90% Reduccion en tiempo de insights</text>
  <text x="450" y="785" text-anchor="middle" font-family="Arial, sans-serif" font-size="11" fill="#333">60% Mejora en precision de predicciones</text>
  <text x="700" y="785" text-anchor="middle" font-family="Arial, sans-serif" font-size="11" fill="#333">15% Aumento en retencion de clientes</text>
  <text x="950" y="785" text-anchor="middle" font-family="Arial, sans-serif" font-size="11" fill="#333">80% Automatizacion de procesos</text>

  <text x="200" y="800" text-anchor="middle" font-family="Arial, sans-serif" font-size="11" fill="#333">ROI positivo en 6-8 meses</text>
  <text x="450" y="800" text-anchor="middle" font-family="Arial, sans-serif" font-size="11" fill="#333">Time-to-market 50% mas rapido</text>
  <text x="700" y="800" text-anchor="middle" font-family="Arial, sans-serif" font-size="11" fill="#333">Decisiones basadas en datos real-time</text>
  <text x="950" y="800" text-anchor="middle" font-family="Arial, sans-serif" font-size="11" fill="#333">Experiencia de cliente personalizada</text>
</svg>